<svg xmlns="http://www.w3.org/2000/svg" width="817" height="561" viewBox="0 0 817 561">
  <g fill="none" fill-rule="evenodd" transform="translate(40)">
    <path fill="#ED0722" fill-rule="nonzero" d="M177.6,21.4 L65.6,92.6 C35.0012152,111.764451 13.9882579,143.029404 7.8,178.6 C2.37153986,208.151791 7.09389306,238.670879 21.2,265.2 C11.5371159,279.672992 5.06069573,296.034475 2.2,313.2 C-4.21671436,349.319206 4.14225003,386.502185 25.4,416.4 C69.3381445,479.995679 155.105563,498.549447 221.4,458.8 L333.4,387.6 C363.922818,368.394484 384.858971,337.135644 391,301.6 C396.382024,272.112645 391.660891,241.671903 377.6,215.2 C407.32527,168.512709 405.742776,108.457039 373.6,63.4 C329.71631,-0.322780249 243.741286,-18.7459996 177.6,21.4 Z M166.4,422.6 C130.381272,431.965504 92.3489647,417.823238 71.2,387.2 C58.2,369.2 53.4,347 57.2,325 L59.4,314.4 L61.4,307.8 L67.4,311.8 C80.6,321.8 95.4,329 111.2,333.8 L115.2,335.2 L114.8,339.2 C114.4,344.8 116,351 119.2,355.8 C125.8,365.2 137.2,369.8 148.2,366.8 C150.6,366 153,365.2 155,364 L266.6,292.8 C272.2,289.2 275.8,283.8 277.2,277.4 C278.4,270.8 276.8,264 273.2,258.6 C266.6,249.4 255.2,245.2 244.2,248 C241.8,248.8 239.2,249.8 237.2,251 L195,277.8 C155.040595,301.5384 103.529906,290.363199 77,252.2 C64.1341793,234.203959 59.0854066,211.772983 63,190 C66.8586272,168.417274 79.7349188,149.502948 98.4,138 L209.8,66.8 C216.8,62.4 224.4,59.2 232.6,56.8 C268.6,47.4 306.6,61.6 327.8,92 C342.843119,113.121145 347.066477,140.091364 339.2,164.8 L337.2,171.4 L331.4,167.4 C318.059408,157.669861 303.188466,150.23439 287.4,145.4 L283.4,144.2 L283.8,140.2 C284.2,134.4 282.6,128.2 279.4,123.4 C272.8,114 261.4,110 250.4,112.8 C248,113.6 245.6,114.4 243.6,115.6 L131.8,187.4 C126.2,191.2 122.6,196.4 121.4,203 C120.2,209.4 121.8,216.4 125.4,221.6 C131.8,231 143.4,235 154.2,232.2 C156.8,231.4 159.2,230.6 161.2,229.4 L203.8,202.2 C210.8,197.6 218.6,194.2 226.6,192 C262.8,182.6 300.6,196.8 321.8,227.4 C334.8,245.4 339.8,267.6 336.2,289.4 C332.435585,310.912488 319.713079,329.814497 301.2,341.4 L189.6,412.4 C182.340744,416.789821 174.542217,420.218484 166.4,422.6 L166.4,422.6 Z" transform="translate(169)"/>
    <circle cx="684.5" cy="187.5" r="72.5" stroke="#ED0722" stroke-width="40"/>
    <circle cx="52.5" cy="311.5" r="72.5" stroke="#ED0722" stroke-width="40"/>
    <rect width="399" height="51" x="169" y="510" fill="#ED0722" rx="25.5"/>
  </g>
</svg>
